<svg width="128" height="128" viewBox="0 0 128 128" fill="none" xmlns="http://www.w3.org/2000/svg">
  <rect x="4" y="4" width="120" height="120" rx="24" fill="#0B1220"/>

  <path d="M31 64C31 46.9 44.9 33 62 33H69" stroke="#E2E8F0" stroke-width="6" stroke-linecap="round"/>
  <path d="M97 64C97 81.1 83.1 95 66 95H59" stroke="#E2E8F0" stroke-width="6" stroke-linecap="round"/>
  <path d="M77 31L90 42L74 46" fill="#E2E8F0"/>
  <path d="M51 97L38 86L54 82" fill="#E2E8F0"/>

  <rect x="41" y="41" width="18" height="18" rx="4" stroke="#22D3EE" stroke-width="4"/>
  <rect x="69" y="41" width="18" height="18" rx="4" stroke="#22D3EE" stroke-width="4"/>
  <rect x="41" y="69" width="18" height="18" rx="4" stroke="#22D3EE" stroke-width="4"/>
  <rect x="69" y="69" width="18" height="18" rx="4" stroke="#22D3EE" stroke-width="4"/>

  <path d="M50 50L78 78" stroke="#E2E8F0" stroke-width="3" stroke-linecap="round"/>
  <path d="M78 50L50 78" stroke="#E2E8F0" stroke-width="3" stroke-linecap="round"/>
</svg>
